<svg xmlns="http://www.w3.org/2000/svg" width="1200" height="675" viewBox="0 0 1200 675">
<defs><linearGradient id="g" x1="0" y1="0" x2="1" y2="1"><stop stop-color="#143d2b"/><stop offset="1" stop-color="#2f6a4b"/></linearGradient></defs>
<rect width="1200" height="675" rx="34" fill="#f7f3e8"/><rect x="58" y="54" width="1084" height="567" rx="30" fill="url(#g)"/>
<text x="105" y="125" fill="#dfead9" font-family="Arial" font-size="24" font-weight="700">SEMESTER 1 · C++ PROJECT</text>
<text x="105" y="194" fill="white" font-family="Arial" font-size="54" font-weight="800">Cafe Management System</text>
<rect x="105" y="245" width="605" height="285" rx="22" fill="#fffdf5"/>
<circle cx="145" cy="282" r="9" fill="#d35c4a"/><circle cx="175" cy="282" r="9" fill="#d6a84a"/><circle cx="205" cy="282" r="9" fill="#5d9668"/>
<text x="145" y="340" fill="#173c2c" font-family="monospace" font-size="26">1. Coffee         PKR 350</text><text x="145" y="390" fill="#173c2c" font-family="monospace" font-size="26">2. Sandwich       PKR 500</text><text x="145" y="440" fill="#173c2c" font-family="monospace" font-size="26">3. Pasta          PKR 700</text><text x="145" y="495" fill="#2f6a4b" font-family="monospace" font-size="25" font-weight="700">Order → Validate → Bill</text>
<rect x="770" y="245" width="270" height="285" rx="22" fill="#eaf2e6"/><rect x="815" y="285" width="180" height="168" rx="16" fill="#fffdf5"/><path d="M845 320h120M845 355h96M845 390h118" stroke="#6f8d68" stroke-width="10" stroke-linecap="round"/><text x="905" y="495" fill="#173c2c" font-family="Arial" font-size="17" font-weight="700" text-anchor="middle">Menu · Orders · Billing</text>
</svg>