<svg xmlns="http://www.w3.org/2000/svg" width="1200" height="675" viewBox="0 0 1200 675">
<defs><linearGradient id="g2" x1="0" y1="0" x2="1" y2="1"><stop stop-color="#e6efe1"/><stop offset="1" stop-color="#cadcc3"/></linearGradient></defs>
<rect width="1200" height="675" rx="34" fill="#f7f3e8"/><rect x="58" y="54" width="1084" height="567" rx="30" fill="url(#g2)" stroke="#9eb49a"/>
<text x="104" y="125" fill="#4e7457" font-family="Arial" font-size="24" font-weight="700">SEMESTER 3 · DATA STRUCTURES</text><text x="104" y="194" fill="#173c2c" font-family="Arial" font-size="54" font-weight="800">Grocery Management System</text>
<rect x="104" y="245" width="720" height="275" rx="24" fill="#fffdf5"/><text x="145" y="302" fill="#173c2c" font-family="Arial" font-size="24" font-weight="700">Inventory flow</text>
<g font-family="Arial" font-size="20" text-anchor="middle"><rect x="145" y="352" width="150" height="92" rx="18" fill="#dcebd8" stroke="#6f8d68"/><text x="220" y="407" fill="#173c2c">Linked List</text><rect x="355" y="352" width="150" height="92" rx="18" fill="#e9efdf" stroke="#7d9d70"/><text x="430" y="407" fill="#173c2c">Stack</text><rect x="565" y="352" width="150" height="92" rx="18" fill="#e1ecd9" stroke="#6f8d68"/><text x="640" y="407" fill="#173c2c">Queue</text></g>
<path d="M295 398h60M505 398h60" stroke="#2f6a4b" stroke-width="8" stroke-linecap="round"/><path d="M339 386l16 12-16 12M549 386l16 12-16 12" fill="none" stroke="#2f6a4b" stroke-width="6"/>
<g transform="translate(875 260)"><rect width="190" height="210" rx="26" fill="#214e38"/><path d="M45 80h95l-13 73H62z" fill="#fffdf5"/><path d="M66 78c4-34 58-34 62 0" fill="none" stroke="#fffdf5" stroke-width="12"/><circle cx="80" cy="173" r="10" fill="#a9c39c"/><circle cx="124" cy="173" r="10" fill="#a9c39c"/></g>
</svg>